<svg xmlns="http://www.w3.org/2000/svg" viewBox="0 0 148.5 196.4"><defs><style>.cls-1{fill: #ffffff}</style></defs><path class="cls-1" d="M133.3 0H15.2A15.19 15.19 0 0 0 0 15.2v166a15.19 15.19 0 0 0 15.2 15.2h85.2a6.29 6.29 0 0 0 4.6-2l10.2-10.7 20.6-21.7 11-11.5a6.56 6.56 0 0 0 1.7-4.4V15.3A15.28 15.28 0 0 0 133.3 0zm-26.5 174.2v-21.7h20.5zm29-34.4h-35.3a6.38 6.38 0 0 0-6.4 6.4v37.6H15.2a2.48 2.48 0 0 1-2.5-2.5v-166a2.48 2.48 0 0 1 2.5-2.5h118.1a2.48 2.48 0 0 1 2.5 2.5v124.5z"/><path class="cls-1" d="M79.4 146.1a6.38 6.38 0 0 1-6.4 6.4H39.3a6.4 6.4 0 1 1 0-12.8H73a6.44 6.44 0 0 1 6.4 6.4zM115.6 120.7a6.38 6.38 0 0 1-6.4 6.4H39.3a6.4 6.4 0 0 1 0-12.8h69.9a6.51 6.51 0 0 1 6.4 6.4zM115.6 95.3a6.38 6.38 0 0 1-6.4 6.4H39.3a6.4 6.4 0 0 1 0-12.8h69.9a6.51 6.51 0 0 1 6.4 6.4zM70.2 66.8c-.1.1-.1.2-.2.3a13.29 13.29 0 0 1-6 5.2 19.21 19.21 0 0 1-8.4 1.9q-8.55 0-13.5-5.4c-3.3-3.6-4.9-8.6-4.9-15v-.7c0-6.1 1.6-11.1 4.9-14.7s7.8-5.5 13.5-5.5c5 0 9 1.4 12 4.3a14.24 14.24 0 0 1 3.2 4.5 5 5 0 0 1-4.6 6.9 5.22 5.22 0 0 1-4.7-3.2 5.67 5.67 0 0 0-1.2-1.8 6.26 6.26 0 0 0-4.9-1.9 6.29 6.29 0 0 0-5.6 2.7c-1.3 1.8-1.9 4.7-1.9 8.8v1.1c0 4.1.6 7.1 1.9 8.9a6.59 6.59 0 0 0 5.7 2.7 6.8 6.8 0 0 0 4.8-1.6 4.43 4.43 0 0 0 1.2-1.5 5 5 0 0 1 4.4-2.8h.1a4.48 4.48 0 0 1 4.2 6.8zM111.3 38.7a5.55 5.55 0 0 1-.3 1.7l-9.5 28.3a7.09 7.09 0 0 1-10.8 3.5 6.65 6.65 0 0 1-2.6-3.5l-9.5-28.3a5.17 5.17 0 0 1 4.9-6.8 4.69 4.69 0 0 1 3.1 1.1 5.8 5.8 0 0 1 1.9 2.7l6.4 23.1 6.4-23.1a5.25 5.25 0 0 1 5-3.8 5 5 0 0 1 5 5.1z"/></svg>